<?xml version="1.0" encoding="UTF-8" standalone="no"?>
<!DOCTYPE svg PUBLIC "-//W3C//DTD SVG 1.1//EN" "http://www.w3.org/Graphics/SVG/1.1/DTD/svg11.dtd">
<svg width="100%" height="100%" viewBox="0 0 27 437" version="1.1" xmlns="http://www.w3.org/2000/svg" xmlns:xlink="http://www.w3.org/1999/xlink" xml:space="preserve" xmlns:serif="http://www.serif.com/" style="fill-rule:evenodd;clip-rule:evenodd;stroke-linejoin:round;stroke-miterlimit:2;">
    <g transform="matrix(1,0,0,1,-4131.690368,-482.496009)">
        <g transform="matrix(1,0,0,1,-0.614994,42.377044)">
            <g transform="matrix(1.732422,0,0,1.732422,4108.698436,327.130388)">
                <path d="M15.807,316.928C16.267,314.533 18.831,311.906 17.186,309.744C15.757,307.864 16.479,307.402 18.65,306.73C19.902,304.552 19.386,304.294 17.373,302.684C13.17,299.322 18.212,297.78 18.521,297.521C18.863,297.234 18.97,295.095 19.656,294.849C20.251,294.636 24.871,295.779 22.347,287.564C21.232,285.174 21.33,285.113 21.143,284.982C17.062,282.117 19.795,280.937 19.347,273.515C19.137,270.043 14.805,268.05 20.432,266.151C22.425,265.478 20.318,264.111 20.169,262.549C19.758,258.245 21.179,258.522 21.115,258.169C21.049,257.801 20.281,257.868 20.215,257.5L20.381,256.56C19.553,250.726 28.184,252.499 25.082,248.965C24.121,247.871 19.46,251.267 18.714,251.045C18.306,250.924 19.316,243.427 19.317,243.427C20.535,239.929 17.217,238.988 19.569,237.661C21.579,236.528 23.107,243.817 23.443,239.47C23.698,236.154 27.398,237.982 27.584,238.028C29.488,238.498 29.886,235.462 25.458,234.894C20.53,234.262 22.153,232.286 23.004,227.463C23.242,226.112 21.167,223.524 23.373,222.346C27.36,220.217 16.217,216.813 23.218,208.264C25.512,205.463 21.472,202.111 22.297,199.422C23.545,195.354 18.461,190.003 20.828,186.613C21.184,186.013 26.224,180.65 22.632,177.133C22.632,177.133 19.833,171.982 22.262,172.216C33.143,173.266 21.871,168.03 23.334,164.426C23.928,162.962 24.379,162.888 23.438,161.54C21.742,159.11 25.805,153.654 22.582,152.349C19.139,150.956 17.336,150.443 19.788,147.736C21.088,146.3 21.579,146.168 20.438,144.54C18.487,141.759 23.618,139.905 20.403,138.857C18.249,138.155 18.034,137.197 17.627,136.011C17.464,135.537 16.401,133.476 15.786,133.221C14.019,132.487 17.089,128.971 14.394,122.503C14.257,122.174 14.996,120.121 16.628,119.531C20.641,118.082 18.712,110.939 15.5,110.406C15.11,110.341 13.21,108.575 13.955,105.555C14.547,103.157 15.767,106.196 16.287,103.783C17.028,100.341 12.399,98.942 14.49,96.596C20.941,95.196 14.025,88.585 16.459,88.093C22.035,86.965 15.632,81.316 16.93,80.094C19.2,77.957 13.02,81.886 13.676,75.155C13.985,71.98 17.845,71.862 15.807,65.22" style="fill:none;"/>
            </g>
        </g>
    </g>
</svg>
